<svg width="1920" height="1080" viewBox="0 0 1920 1080" fill="none" xmlns="http://www.w3.org/2000/svg">
<g clip-path="url(#clip0_170_2)">
<mask id="mask0_170_2" style="mask-type:alpha" maskUnits="userSpaceOnUse" x="0" y="179" width="1920" height="722">
<rect y="179" width="1920" height="722" fill="black"/>
</mask>
<g mask="url(#mask0_170_2)">
<path fill-rule="evenodd" clip-rule="evenodd" d="M1174.93 479.895H1231.58L1228.46 497.531L1220.95 540L1201.86 648.028H1258.51L1277.4 540L1284.83 497.531L1287.91 479.895H1343.94L1343.94 479.894L1344.23 478.207L1344.76 475.182C1348.48 456.821 1361.54 441.839 1378.77 435.379L1371 479.894L1367.92 497.531L1362.75 527.136L1360.51 540L1341.65 648.031L1330.06 714.402H1334.65C1344.77 683.955 1368.16 659.552 1397.97 648.031L1397.99 648.027L1411.91 567.982H1462.63L1449.78 641.599L1448.65 648.031H1475.62H1504.99L1523.85 540L1531.26 497.531L1534.34 479.894L1542.75 431.684H1379.41L1352.3 431.684H1183.29L1174.93 479.894L1174.93 479.895ZM1437.31 522.859H1470.5L1474.92 497.531L1478 479.898H1451.55H1427.08L1424.03 497.531L1419.65 522.859H1437.31Z" fill="#FBFCF8"/>
<path d="M1657.46 648.028H1718.44L1707.05 618.4L1686.24 564.271C1694.39 561.001 1701.74 556.771 1708.1 551.574C1712.3 548.139 1716.07 544.282 1719.33 540C1727.88 528.774 1733 514.63 1733.55 497.531C1733.59 496.505 1733.6 495.469 1733.6 494.421C1733.6 489.353 1733.11 484.498 1732.13 479.894C1725.98 451.009 1700.55 431.955 1656.25 431.684H1631.11H1574.19L1565.77 479.894L1562.69 497.531L1555.28 540L1536.42 648.028H1592.45L1605.76 573.543L1611.75 540L1612.99 533.08L1619.34 497.531L1622.49 479.894L1623.04 476.805H1646.62C1653.4 476.805 1659.13 477.893 1663.74 479.894C1671.72 483.353 1676.37 489.538 1677.37 497.531C1677.51 498.625 1677.58 499.753 1677.58 500.912C1677.58 516.663 1668.44 527.664 1652.86 531.681C1652.44 531.789 1652.02 531.891 1651.59 531.989C1645.25 533.613 1639.35 536.358 1634.13 540C1622.94 547.799 1614.85 559.713 1612.04 573.543H1633L1653.9 637.188L1657.46 648.028Z" fill="#FBFCF8"/>
<path d="M758.817 479.895H840.227L840.227 479.894L848.584 431.684H711.146L702.731 479.894L699.652 497.531L692.239 540L679.618 612.301L673.382 648.028L661.796 714.402H666.381C676.501 683.952 699.896 659.548 729.717 648.028H729.719L743.649 567.98H818.559L823.549 540L826.607 522.856H751.387L755.767 497.531L758.817 479.895Z" fill="#378A92"/>
<path d="M902.63 648.028H846.292L865.149 540L872.562 497.531H928.9L921.487 540L902.63 648.028Z" fill="#378A92"/>
<path d="M1011.69 534.909L1011.38 537.073L1009.15 540L926.871 648.028H991.876L1043.57 570.761H1047.28L1072.36 648.028H1135.2L1091.02 540L1089.69 536.764L1090 534.909L1119.14 497.531L1132.89 479.894L1170.48 431.684H1106.41L1072.01 479.894L1059.43 497.531L1058.12 499.367H1054.4L1053.72 497.531L1047.1 479.894L1029.02 431.684H966.494H940.394H884.056L875.641 479.894H931.979L932.041 479.535L933.05 473.753C937.245 455.633 950.57 441.003 967.926 434.953L987.601 479.894L995.322 497.531L1011.15 533.685L1011.69 534.909Z" fill="#378A92"/>
<path d="M415.329 714.402C428.527 713.895 440.241 707.638 448.006 698.08L538.786 582.602L571.443 582.602C584.81 582.602 596.745 576.504 604.584 566.955L621.185 545.838C622.463 544.174 623.325 542.176 623.615 540C623.686 539.466 623.723 538.922 623.723 538.369C623.723 536.769 623.416 535.241 622.857 533.838L605.664 497.531H460.293C447.121 497.531 435.341 503.451 427.499 512.761L406.087 540L372.595 582.602H426.261H426.263L426.261 582.603L322.651 714.402H415.329Z" fill="#FBFCF8"/>
<path d="M325.534 369.893C320.307 372.433 315.678 376.002 311.915 380.334L256.571 450.735H455.47C468.416 450.735 480.017 445.016 487.856 435.982L543.187 365.598H344.286C337.56 365.598 331.196 367.142 325.534 369.893Z" fill="#378A92"/>
<path d="M240.605 497.531C227.433 497.531 215.653 503.451 207.811 512.76L186.397 540L186.397 540.001L268.984 714.401L321.181 648.003L298.03 599.041C297.569 597.752 297.318 596.363 297.318 594.916C297.318 588.123 302.854 582.614 309.686 582.602H319.097L352.588 540L385.974 497.531H240.605Z" fill="#378A92"/>
</g>
</g>
<defs>
<clipPath id="clip0_170_2">
<rect width="1920" height="722" fill="white" transform="translate(0 179)"/>
</clipPath>
</defs>
</svg>
