<svg width="1080" height="1080" viewBox="0 0 1080 1080" fill="none" xmlns="http://www.w3.org/2000/svg">
<mask id="mask0_170_59" style="mask-type:alpha" maskUnits="userSpaceOnUse" x="1" y="77" width="1079" height="927">
<rect x="1" y="77" width="1079" height="927" fill="black"/>
</mask>
<g mask="url(#mask0_170_59)">
<path d="M277.529 381.035H467.621H572.1H630.076C653.022 381.035 673.585 370.834 687.48 354.719L692.017 348.911L785.554 229.171H690.73H433.004C421.081 229.171 409.802 231.925 399.767 236.832C390.501 241.363 382.296 247.729 375.626 255.457L371.04 261.327L277.529 381.035Z" fill="#378A92"/>
<path d="M249.23 464.507C225.883 464.507 205.003 475.067 191.104 491.672L187.937 495.725L153.146 540.263L188.904 616.252L243.855 733.029L263.885 775.594L299.532 851.349L391.959 733.029L392.051 732.912L356.437 657.114L352.83 649.437L351.016 645.576C350.199 643.276 349.754 640.799 349.754 638.218C349.754 626.1 359.565 616.274 371.676 616.252H371.757H388.357L447.719 540.261L506.895 464.507H265.941H249.23Z" fill="#378A92"/>
<path d="M447.699 851.35H552.77H558.925C582.319 850.447 603.082 839.285 616.844 822.236L618.394 820.253L653.279 775.594L686.529 733.029L777.751 616.252L835.636 616.252C859.329 616.252 880.483 605.375 894.377 588.342L896.354 585.811L923.506 551.053L923.802 550.674C926.068 547.706 927.596 544.143 928.11 540.261C928.236 539.309 928.301 538.338 928.301 537.352C928.301 534.498 927.757 531.772 926.767 529.271L925.596 526.783L896.289 464.507H696.843H638.623C615.277 464.507 594.396 475.068 580.496 491.673L577.332 495.724L542.543 540.259L542.544 540.261H542.542L483.18 616.252H578.302H578.305L578.303 616.255L487.083 733.029L427.777 808.95L394.655 851.35H447.699Z" fill="#378A92"/>
</g>
</svg>
