<?xml version="1.0" encoding="utf-8"?>
<svg xmlns="http://www.w3.org/2000/svg" xmlns:xlink="http://www.w3.org/1999/xlink" style="display:none;">
  <defs>
    <symbol viewBox="0 0 256 301" preserveAspectRatio="xMidYMid" aria-labelledby="aamsi-logos-android-icon-title" id="icon-android-icon"><title id="aamsi-logos-android-icon-title">logo of android-icon</title><path d="M78.389.858a8.824 8.824 0 0 0-4.19 1.089c-4.218 2.338-5.765 7.757-3.428 11.972l9.523 17.196C57.35 45.31 42.147 69.558 42.147 97.233v5.142c-4.407-5.07-10.884-8.271-18.121-8.271C10.766 94.104 0 104.87 0 118.129v74.009c0 13.258 10.767 24.025 24.026 24.025 7.237 0 13.714-3.202 18.12-8.272v10.367c0 13.977 11.437 25.413 25.414 25.413h6.448v32.923c0 13.26 10.767 24.026 24.026 24.026s24.025-10.767 24.025-24.026v-32.923h11.156v32.923c0 13.26 10.767 24.026 24.026 24.026s24.025-10.767 24.025-24.026v-32.923h6.449c13.976 0 25.413-11.436 25.413-25.413v-10.367c4.406 5.07 10.884 8.272 18.121 8.272 13.259 0 24.025-10.767 24.025-24.025v-74.009c0-13.259-10.766-24.025-24.025-24.025-7.237 0-13.715 3.201-18.121 8.271v-4.272-.245c.002-.26 0-.468 0-.625 0-27.67-15.238-51.894-38.174-66.09l9.55-17.224c2.336-4.215.79-9.634-3.428-11.972a8.824 8.824 0 0 0-4.19-1.089c-3.115-.03-6.172 1.612-7.782 4.517l-9.986 18.04c-9.764-3.603-20.388-5.578-31.48-5.578-11.082 0-21.726 1.954-31.482 5.55L86.171 5.375C84.56 2.47 81.504.83 78.389.858z" /><path d="M24.026 100.362c-9.894 0-17.767 7.873-17.767 17.767v74.009c0 9.894 7.873 17.767 17.767 17.767 9.894 0 17.768-7.873 17.768-17.767v-74.009c0-9.894-7.874-17.767-17.768-17.767zm207.224 0c-9.895 0-17.768 7.873-17.768 17.767v74.009c0 9.894 7.873 17.767 17.768 17.767 9.894 0 17.767-7.873 17.767-17.767v-74.009c0-9.894-7.873-17.767-17.767-17.767zM98.034 184.818c-9.894 0-17.768 7.873-17.768 17.768v74.008c0 9.894 7.874 17.767 17.768 17.767 9.894 0 17.767-7.873 17.767-17.767v-74.008c0-9.895-7.873-17.768-17.767-17.768zm59.207 0c-9.895 0-17.768 7.873-17.768 17.768v74.008c0 9.894 7.873 17.767 17.768 17.767 9.894 0 17.767-7.873 17.767-17.767v-74.008c0-9.895-7.873-17.768-17.767-17.768z" /><path d="M78.443 7.117a2.47 2.47 0 0 0-1.197.326c-1.267.702-1.683 2.158-.98 3.428l12.517 22.611c-24.08 12.53-40.346 36.341-40.378 63.669H206.87c-.033-27.328-16.298-51.14-40.378-63.669l12.516-22.61c.704-1.27.287-2.727-.98-3.429a2.467 2.467 0 0 0-1.197-.326c-.9-.01-1.751.44-2.231 1.306l-12.68 22.855c-10.372-4.6-22.006-7.183-34.283-7.183-12.277 0-23.91 2.582-34.283 7.183L80.674 8.423a2.486 2.486 0 0 0-2.23-1.306zm-30.038 96.292v114.85a19.113 19.113 0 0 0 19.155 19.154h120.155a19.113 19.113 0 0 0 19.155-19.155V103.41H48.405z" /><path d="M91.068 54.923c-3.617 0-6.612 2.994-6.612 6.611 0 3.618 2.995 6.612 6.612 6.612 3.618 0 6.612-2.994 6.612-6.612 0-3.617-2.994-6.611-6.612-6.611zm73.138 0c-3.618 0-6.612 2.994-6.612 6.611 0 3.618 2.994 6.612 6.612 6.612 3.617 0 6.612-2.994 6.612-6.612 0-3.617-2.995-6.611-6.612-6.611z" /></symbol>
    <symbol viewBox="0 0 256 315" preserveAspectRatio="xMidYMid" aria-labelledby="abesi-logos-apple-title" id="icon-apple"><title id="abesi-logos-apple-title">logo of apple</title><path d="M213.803 167.03c.442 47.58 41.74 63.413 42.197 63.615-.35 1.116-6.599 22.563-21.757 44.716-13.104 19.153-26.705 38.235-48.13 38.63-21.05.388-27.82-12.483-51.888-12.483-24.061 0-31.582 12.088-51.51 12.871-20.68.783-36.428-20.71-49.64-39.793-27-39.033-47.633-110.3-19.928-158.406 13.763-23.89 38.36-39.017 65.056-39.405 20.307-.387 39.475 13.662 51.889 13.662 12.406 0 35.699-16.895 60.186-14.414 10.25.427 39.026 4.14 57.503 31.186-1.49.923-34.335 20.044-33.978 59.822M174.24 50.199c10.98-13.29 18.369-31.79 16.353-50.199-15.826.636-34.962 10.546-46.314 23.828-10.173 11.763-19.082 30.589-16.678 48.633 17.64 1.365 35.66-8.964 46.64-22.262"/></symbol>
    <symbol viewBox="0 0 256 256" preserveAspectRatio="xMidYMid" aria-labelledby="akisi-logos-facebook-title" id="icon-facebook"><title id="akisi-logos-facebook-title">logo of facebook</title><path d="M241.871 256.001c7.802 0 14.129-6.326 14.129-14.129V14.129C256 6.325 249.673 0 241.871 0H14.129C6.324 0 0 6.325 0 14.129v227.743c0 7.803 6.324 14.129 14.129 14.129h227.742" /><path d="M176.635 256.001v-99.137h33.277l4.982-38.635h-38.259V93.561c0-11.186 3.107-18.809 19.148-18.809l20.459-.009V40.188c-3.54-.471-15.684-1.523-29.812-1.523-29.498 0-49.692 18.005-49.692 51.071v28.493h-33.362v38.635h33.362v99.137h39.897" /></symbol>
    <symbol viewBox="0 0 256 250" preserveAspectRatio="xMidYMid" aria-labelledby="alzsi-logos-github-icon-title" id="icon-github-icon"><title id="alzsi-logos-github-icon-title">logo of github-icon</title><path d="M128.001 0C57.317 0 0 57.307 0 128.001c0 56.554 36.676 104.535 87.535 121.46 6.397 1.185 8.746-2.777 8.746-6.158 0-3.052-.12-13.135-.174-23.83-35.61 7.742-43.124-15.103-43.124-15.103-5.823-14.795-14.213-18.73-14.213-18.73-11.613-7.944.876-7.78.876-7.78 12.853.902 19.621 13.19 19.621 13.19 11.417 19.568 29.945 13.911 37.249 10.64 1.149-8.272 4.466-13.92 8.127-17.116-28.431-3.236-58.318-14.212-58.318-63.258 0-13.975 5-25.394 13.188-34.358-1.329-3.224-5.71-16.242 1.24-33.874 0 0 10.749-3.44 35.21 13.121 10.21-2.836 21.16-4.258 32.038-4.307 10.878.049 21.837 1.47 32.066 4.307 24.431-16.56 35.165-13.12 35.165-13.12 6.967 17.63 2.584 30.65 1.255 33.873 8.207 8.964 13.173 20.383 13.173 34.358 0 49.163-29.944 59.988-58.447 63.157 4.591 3.972 8.682 11.762 8.682 23.704 0 17.126-.148 30.91-.148 35.126 0 3.407 2.304 7.398 8.792 6.14C219.37 232.5 256 184.537 256 128.002 256 57.307 198.691 0 128.001 0zm-80.06 182.34c-.282.636-1.283.827-2.194.39-.929-.417-1.45-1.284-1.15-1.922.276-.655 1.279-.838 2.205-.399.93.418 1.46 1.293 1.139 1.931zm6.296 5.618c-.61.566-1.804.303-2.614-.591-.837-.892-.994-2.086-.375-2.66.63-.566 1.787-.301 2.626.591.838.903 1 2.088.363 2.66zm4.32 7.188c-.785.545-2.067.034-2.86-1.104-.784-1.138-.784-2.503.017-3.05.795-.547 2.058-.055 2.861 1.075.782 1.157.782 2.522-.019 3.08zm7.304 8.325c-.701.774-2.196.566-3.29-.49-1.119-1.032-1.43-2.496-.726-3.27.71-.776 2.213-.558 3.315.49 1.11 1.03 1.45 2.505.701 3.27zm9.442 2.81c-.31 1.003-1.75 1.459-3.199 1.033-1.448-.439-2.395-1.613-2.103-2.626.301-1.01 1.747-1.484 3.207-1.028 1.446.436 2.396 1.602 2.095 2.622zm10.744 1.193c.036 1.055-1.193 1.93-2.715 1.95-1.53.034-2.769-.82-2.786-1.86 0-1.065 1.202-1.932 2.733-1.958 1.522-.03 2.768.818 2.768 1.868zm10.555-.405c.182 1.03-.875 2.088-2.387 2.37-1.485.271-2.861-.365-3.05-1.386-.184-1.056.893-2.114 2.376-2.387 1.514-.263 2.868.356 3.061 1.403z" /></symbol>
    <symbol viewBox="0 0 256 262" preserveAspectRatio="xMidYMid" aria-labelledby="amrsi-logos-google-icon-title" id="icon-google-icon"><title id="amrsi-logos-google-icon-title">logo of google-icon</title><path d="M255.878 133.451c0-10.734-.871-18.567-2.756-26.69H130.55v48.448h71.947c-1.45 12.04-9.283 30.172-26.69 42.356l-.244 1.622 38.755 30.023 2.685.268c24.659-22.774 38.875-56.282 38.875-96.027" /><path d="M130.55 261.1c35.248 0 64.839-11.605 86.453-31.622l-41.196-31.913c-11.024 7.688-25.82 13.055-45.257 13.055-34.523 0-63.824-22.773-74.269-54.25l-1.531.13-40.298 31.187-.527 1.465C35.393 231.798 79.49 261.1 130.55 261.1" /><path d="M56.281 156.37c-2.756-8.123-4.351-16.827-4.351-25.82 0-8.994 1.595-17.697 4.206-25.82l-.073-1.73L15.26 71.312l-1.335.635C5.077 89.644 0 109.517 0 130.55s5.077 40.905 13.925 58.602l42.356-32.782" /><path d="M130.55 50.479c24.514 0 41.05 10.589 50.479 19.438l36.844-35.974C195.245 12.91 165.798 0 130.55 0 79.49 0 35.393 29.301 13.925 71.947l42.211 32.783c10.59-31.477 39.891-54.251 74.414-54.251" /></symbol>
    <symbol viewBox="0 0 256 256" preserveAspectRatio="xMidYMid" aria-labelledby="aoysi-logos-instagram-icon-title" id="icon-instagram-icon"><title id="aoysi-logos-instagram-icon-title">logo of instagram-icon</title><path d="M128 23.064c34.177 0 38.225.13 51.722.745 12.48.57 19.258 2.655 23.769 4.408 5.974 2.322 10.238 5.096 14.717 9.575 4.48 4.479 7.253 8.743 9.575 14.717 1.753 4.511 3.838 11.289 4.408 23.768.615 13.498.745 17.546.745 51.723 0 34.178-.13 38.226-.745 51.723-.57 12.48-2.655 19.257-4.408 23.768-2.322 5.974-5.096 10.239-9.575 14.718-4.479 4.479-8.743 7.253-14.717 9.574-4.511 1.753-11.289 3.839-23.769 4.408-13.495.616-17.543.746-51.722.746-34.18 0-38.228-.13-51.723-.746-12.48-.57-19.257-2.655-23.768-4.408-5.974-2.321-10.239-5.095-14.718-9.574-4.479-4.48-7.253-8.744-9.574-14.718-1.753-4.51-3.839-11.288-4.408-23.768-.616-13.497-.746-17.545-.746-51.723 0-34.177.13-38.225.746-51.722.57-12.48 2.655-19.258 4.408-23.769 2.321-5.974 5.095-10.238 9.574-14.717 4.48-4.48 8.744-7.253 14.718-9.575 4.51-1.753 11.288-3.838 23.768-4.408 13.497-.615 17.545-.745 51.723-.745M128 0C93.237 0 88.878.147 75.226.77c-13.625.622-22.93 2.786-31.071 5.95-8.418 3.271-15.556 7.648-22.672 14.764C14.367 28.6 9.991 35.738 6.72 44.155 3.555 52.297 1.392 61.602.77 75.226.147 88.878 0 93.237 0 128c0 34.763.147 39.122.77 52.774.622 13.625 2.785 22.93 5.95 31.071 3.27 8.417 7.647 15.556 14.763 22.672 7.116 7.116 14.254 11.492 22.672 14.763 8.142 3.165 17.446 5.328 31.07 5.95 13.653.623 18.012.77 52.775.77s39.122-.147 52.774-.77c13.624-.622 22.929-2.785 31.07-5.95 8.418-3.27 15.556-7.647 22.672-14.763 7.116-7.116 11.493-14.254 14.764-22.672 3.164-8.142 5.328-17.446 5.95-31.07.623-13.653.77-18.012.77-52.775s-.147-39.122-.77-52.774c-.622-13.624-2.786-22.929-5.95-31.07-3.271-8.418-7.648-15.556-14.764-22.672C227.4 14.368 220.262 9.99 211.845 6.72c-8.142-3.164-17.447-5.328-31.071-5.95C167.122.147 162.763 0 128 0zm0 62.27C91.698 62.27 62.27 91.7 62.27 128c0 36.302 29.428 65.73 65.73 65.73 36.301 0 65.73-29.428 65.73-65.73 0-36.301-29.429-65.73-65.73-65.73zm0 108.397c-23.564 0-42.667-19.103-42.667-42.667S104.436 85.333 128 85.333s42.667 19.103 42.667 42.667-19.103 42.667-42.667 42.667zm83.686-110.994c0 8.484-6.876 15.36-15.36 15.36-8.483 0-15.36-6.876-15.36-15.36 0-8.483 6.877-15.36 15.36-15.36 8.484 0 15.36 6.877 15.36 15.36z" /></symbol>
    <symbol viewBox="0 0 256 302" preserveAspectRatio="xMidYMid" aria-labelledby="awnsi-logos-paypal-title" id="icon-paypal"><title id="awnsi-logos-paypal-title">logo of paypal</title><path d="M217.168 23.507C203.234 7.625 178.046.816 145.823.816h-93.52A13.393 13.393 0 0 0 39.076 12.11L.136 259.077c-.774 4.87 2.997 9.28 7.933 9.28h57.736l14.5-91.971-.45 2.88c1.033-6.501 6.593-11.296 13.177-11.296h27.436c53.898 0 96.101-21.892 108.429-85.221.366-1.873.683-3.696.957-5.477-1.556-.824-1.556-.824 0 0 3.671-23.407-.025-39.34-12.686-53.765" /><path d="M102.397 68.84a11.737 11.737 0 0 1 5.053-1.14h73.318c8.682 0 16.78.565 24.18 1.756a101.6 101.6 0 0 1 6.177 1.182 89.928 89.928 0 0 1 8.59 2.347c3.638 1.215 7.026 2.63 10.14 4.287 3.67-23.416-.026-39.34-12.687-53.765C203.226 7.625 178.046.816 145.823.816H52.295C45.71.816 40.108 5.61 39.076 12.11L.136 259.068c-.774 4.878 2.997 9.282 7.925 9.282h57.744L95.888 77.58a11.717 11.717 0 0 1 6.509-8.74z" /><path d="M228.897 82.749c-12.328 63.32-54.53 85.221-108.429 85.221H93.024c-6.584 0-12.145 4.795-13.168 11.296L61.817 293.621c-.674 4.262 2.622 8.124 6.934 8.124h48.67a11.71 11.71 0 0 0 11.563-9.88l.474-2.48 9.173-58.136.591-3.213a11.71 11.71 0 0 1 11.562-9.88h7.284c47.147 0 84.064-19.154 94.852-74.55 4.503-23.15 2.173-42.478-9.739-56.054-3.613-4.112-8.1-7.508-13.327-10.28-.283 1.79-.59 3.604-.957 5.477z" /><path d="M216.952 72.128a89.928 89.928 0 0 0-5.818-1.49 109.904 109.904 0 0 0-6.177-1.174c-7.408-1.199-15.5-1.765-24.19-1.765h-73.309a11.57 11.57 0 0 0-5.053 1.149 11.683 11.683 0 0 0-6.51 8.74l-15.582 98.798-.45 2.88c1.025-6.501 6.585-11.296 13.17-11.296h27.444c53.898 0 96.1-21.892 108.428-85.221.367-1.873.675-3.688.958-5.477-3.122-1.648-6.501-3.072-10.14-4.279a83.26 83.26 0 0 0-2.77-.865" /></symbol>
    <symbol viewBox="0 0 256 256" preserveAspectRatio="xMidYMid" aria-labelledby="axasi-logos-pinterest-title" id="icon-pinterest"><title id="axasi-logos-pinterest-title">logo of pinterest</title><path d="M0 128.002c0 52.414 31.518 97.442 76.619 117.239-.36-8.938-.064-19.668 2.228-29.393 2.461-10.391 16.47-69.748 16.47-69.748s-4.089-8.173-4.089-20.252c0-18.969 10.994-33.136 24.686-33.136 11.643 0 17.268 8.745 17.268 19.217 0 11.704-7.465 29.211-11.304 45.426-3.207 13.578 6.808 24.653 20.203 24.653 24.252 0 40.586-31.149 40.586-68.055 0-28.054-18.895-49.052-53.262-49.052-38.828 0-63.017 28.956-63.017 61.3 0 11.152 3.288 19.016 8.438 25.106 2.368 2.797 2.697 3.922 1.84 7.134-.614 2.355-2.024 8.025-2.608 10.272-.852 3.242-3.479 4.401-6.409 3.204-17.884-7.301-26.213-26.886-26.213-48.902 0-36.361 30.666-79.961 91.482-79.961 48.87 0 81.035 35.364 81.035 73.325 0 50.213-27.916 87.726-69.066 87.726-13.819 0-26.818-7.47-31.271-15.955 0 0-7.431 29.492-9.005 35.187-2.714 9.869-8.026 19.733-12.883 27.421a127.897 127.897 0 0 0 36.277 5.249c70.684 0 127.996-57.309 127.996-128.005C256.001 57.309 198.689 0 128.005 0 57.314 0 0 57.309 0 128.002z" /></symbol>
    <symbol viewBox="0 0 256 256" preserveAspectRatio="xMidYMid" aria-labelledby="bcvsi-logos-stripe-title" id="icon-stripe"><title id="bcvsi-logos-stripe-title">logo of stripe</title><defs><linearGradient x1="100%" y1="58.356%" x2="0%" y2="0%" id="bcva"><stop stop-color="#2697D4" offset="0%"></stop><stop stop-color="#207BCB" offset="50%"></stop><stop stop-color="#2285CE" offset="100%"></stop></linearGradient><filter x="-50%" y="-50%" width="200%" height="200%" filterUnits="objectBoundingBox" id="bcvb"><feOffset dx="2" dy="2" in="SourceAlpha" result="shadowOffsetOuter1"></feOffset><feGaussianBlur stdDeviation="3.5" in="shadowOffsetOuter1" result="shadowBlurOuter1"></feGaussianBlur><feColorMatrix values="0 0 0 0 0 0 0 0 0 0 0 0 0 0 0 0 0 0 0.185125113 0" in="shadowBlurOuter1" result="shadowMatrixOuter1"></feColorMatrix><feMerge><feMergeNode in="shadowMatrixOuter1"></feMergeNode><feMergeNode in="SourceGraphic"></feMergeNode></feMerge></filter></defs><path  d="M0 0h256v256H0z"/><path d="M139.688 111c-12.927-4.78-20.011-8.5-20.011-14.343 0-4.96 4.073-7.792 11.334-7.792 13.281 0 26.916 5.136 36.302 9.739l5.312-32.76c-7.438-3.542-22.667-9.385-43.74-9.385-14.874 0-27.27 3.895-36.124 11.156-9.21 7.614-13.99 18.594-13.99 31.875 0 24.083 14.698 34.354 38.604 43.031 15.406 5.49 20.542 9.386 20.542 15.406 0 5.844-4.96 9.208-13.99 9.208-11.157 0-29.572-5.489-41.615-12.572L77 187.677c10.27 5.844 29.395 11.864 49.23 11.864 15.76 0 28.864-3.718 37.718-10.801 9.916-7.792 15.052-19.302 15.052-34.177 0-24.615-15.052-34.886-39.313-43.562z"  filter="url(#bcvb)"/></symbol>
    <symbol viewBox="0 0 256 209" preserveAspectRatio="xMidYMid" aria-labelledby="bewsi-logos-twitter-title" id="icon-twitter"><title id="bewsi-logos-twitter-title">logo of twitter</title><path d="M256 25.45c-9.42 4.177-19.542 7-30.166 8.27 10.845-6.5 19.172-16.793 23.093-29.057a105.183 105.183 0 0 1-33.351 12.745C205.995 7.201 192.346.822 177.239.822c-29.006 0-52.523 23.516-52.523 52.52 0 4.117.465 8.125 1.36 11.97-43.65-2.191-82.35-23.1-108.255-54.876-4.52 7.757-7.11 16.78-7.11 26.404 0 18.222 9.273 34.297 23.365 43.716a52.312 52.312 0 0 1-23.79-6.57c-.003.22-.003.44-.003.661 0 25.447 18.104 46.675 42.13 51.5a52.592 52.592 0 0 1-23.718.9c6.683 20.866 26.08 36.05 49.062 36.475-17.975 14.086-40.622 22.483-65.228 22.483-4.24 0-8.42-.249-12.529-.734 23.243 14.902 50.85 23.597 80.51 23.597 96.607 0 149.434-80.031 149.434-149.435 0-2.278-.05-4.543-.152-6.795A106.748 106.748 0 0 0 256 25.45" /></symbol>
    <symbol viewBox="0 0 256 180" preserveAspectRatio="xMidYMid" aria-labelledby="bhlsi-logos-youtube-title" id="icon-youtube"><title id="bhlsi-logos-youtube-title">logo of youtube</title><defs><linearGradient x1="49.98%" y1="0%" x2="49.98%" y2="100.03%" id="bhla"><stop stop-color="#E52D27" offset="0%"></stop><stop stop-color="#BF171D" offset="100%"></stop></linearGradient></defs><path d="M101.6 123.2l69.2-35.8-69.2-36.1v71.9z" /><path d="M101.6 51.3l60.7 40.5 8.5-4.4-69.2-36.1z" opacity=".12" /><path d="M253.301 38.8s-2.499-17.6-10.196-25.4c-9.696-10.2-20.592-10.2-25.69-10.8C181.73 0 128.05 0 128.05 0h-.1S74.271 0 38.385 2.6c-4.998.6-15.894.6-25.69 10.8C5.098 21.2 2.599 38.8 2.599 38.8S0 59.6 0 80.3v19.4c0 20.7 2.599 41.4 2.599 41.4s2.499 17.6 10.196 25.4c9.696 10.2 22.491 9.9 28.189 10.9 20.492 2 86.966 2.6 86.966 2.6s53.779-.1 89.565-2.7c4.998-.6 15.894-.6 25.69-10.8 7.697-7.8 10.196-25.4 10.196-25.4S256 120.4 256 99.7V80.3c-.1-20.7-2.699-41.5-2.699-41.5zm-151.74 84.4V51.3l69.172 36.1-69.173 35.8z" /></symbol>
    <symbol viewBox="0 0 24 24" id="icon-tiktok"><path d="M12.525.02c1.31-.02 2.61-.01 3.91-.02.08 1.53.63 3.09 1.75 4.17 1.12 1.11 2.7 1.62 4.24 1.79v4.03c-1.44-.05-2.89-.35-4.2-.97-.57-.26-1.1-.59-1.62-.93-.01 2.92.01 5.84-.02 8.75-.08 1.4-.54 2.79-1.35 3.94-1.31 1.92-3.58 3.17-5.91 3.21-1.43.08-2.86-.31-4.08-1.03-2.02-1.19-3.44-3.37-3.65-5.71-.02-.5-.03-1-.01-1.49.18-1.9 1.12-3.72 2.58-4.96 1.66-1.44 3.98-2.13 6.15-1.72.02 1.48-.04 2.96-.04 4.44-.99-.32-2.15-.23-3.02.37-.63.41-1.11 1.04-1.36 1.75-.21.51-.15 1.07-.14 1.61.24 1.64 1.82 3.02 3.5 2.87 1.12-.01 2.19-.66 2.77-1.61.19-.33.4-.67.41-1.06.1-1.79.06-3.57.07-5.36.01-4.03-.01-8.05.02-12.07z"/></symbol>
    <symbol viewBox="0 0 24 24" id="icon-visa"><path d="M9.112 8.262L5.97 15.758H3.92L2.374 9.775c-.094-.368-.175-.503-.461-.658C1.447 8.864.677 8.627 0 8.479l.046-.217h3.3a.904.904 0 01.894.764l.817 4.338 2.018-5.102zm8.033 5.049c.008-1.979-2.736-2.088-2.717-2.972.006-.269.262-.555.822-.628a3.66 3.66 0 011.913.336l.34-1.59a5.207 5.207 0 00-1.814-.333c-1.917 0-3.266 1.02-3.278 2.479-.012 1.079.963 1.68 1.698 2.04.756.367 1.01.603 1.006.931-.005.504-.602.725-1.16.734-.975.015-1.54-.263-1.992-.473l-.351 1.642c.453.208 1.289.39 2.156.398 2.037 0 3.37-1.006 3.377-2.564m5.061 2.447H24l-1.565-7.496h-1.656a.883.883 0 00-.826.55l-2.909 6.946h2.036l.405-1.12h2.488zm-2.163-2.656l1.02-2.815.588 2.815zm-8.16-4.84l-1.603 7.496H8.34l1.605-7.496z"/></symbol>
    <symbol viewBox="0 0 24 24" id="icon-mastercard"><path d="M11.343 18.031c.058.049.12.098.181.146-1.177.783-2.59 1.238-4.107 1.238C3.32 19.416 0 16.096 0 12c0-4.095 3.32-7.416 7.416-7.416 1.518 0 2.931.456 4.105 1.238-.06.051-.12.098-.165.15C9.6 7.489 8.595 9.688 8.595 12c0 2.311 1.001 4.51 2.748 6.031zm5.241-13.447c-1.52 0-2.931.456-4.105 1.238.06.051.12.098.165.15C14.4 7.489 15.405 9.688 15.405 12c0 2.31-1.001 4.507-2.748 6.031-.058.049-.12.098-.181.146 1.177.783 2.588 1.238 4.107 1.238C20.68 19.416 24 16.096 24 12c0-4.094-3.32-7.416-7.416-7.416zM12 6.174c-.096.075-.189.15-.28.231C10.156 7.764 9.169 9.765 9.169 12c0 2.236.987 4.236 2.551 5.595.09.08.185.158.28.232.096-.074.189-.152.28-.232 1.563-1.359 2.551-3.359 2.551-5.595 0-2.235-.987-4.236-2.551-5.595-.09-.08-.184-.156-.28-.231z"/></symbol>
  </defs>
</svg>